<?xml version="1.0" encoding="UTF-8" standalone="no"?>
<!-- Created with Inkscape (http://www.inkscape.org/) -->

<svg
   xmlns:dc="http://purl.org/dc/elements/1.1/"
   xmlns:cc="http://creativecommons.org/ns#"
   xmlns:rdf="http://www.w3.org/1999/02/22-rdf-syntax-ns#"
   xmlns:svg="http://www.w3.org/2000/svg"
   xmlns="http://www.w3.org/2000/svg"
   xmlns:sodipodi="http://sodipodi.sourceforge.net/DTD/sodipodi-0.dtd"
   xmlns:inkscape="http://www.inkscape.org/namespaces/inkscape"
   width="302.1875"
   height="219.6875"
   id="svg2"
   version="1.1"
   inkscape:version="0.48.3.1 r9886"
   sodipodi:docname="sample-polynomial.svg">
  <sodipodi:namedview
     id="base"
     pagecolor="#ffffff"
     bordercolor="#666666"
     borderopacity="1.0"
     inkscape:pageopacity="0.0"
     inkscape:pageshadow="2"
     inkscape:zoom="2"
     inkscape:cx="128.45233"
     inkscape:cy="105.45519"
     inkscape:document-units="px"
     inkscape:current-layer="layer1"
     showgrid="false"
     inkscape:window-width="1280"
     inkscape:window-height="990"
     inkscape:window-x="0"
     inkscape:window-y="0"
     inkscape:window-maximized="0"
     fit-margin-top="0"
     fit-margin-left="0"
     fit-margin-right="0"
     fit-margin-bottom="0"
     units="cm" />
  <defs
     id="defs4">
    <marker
       inkscape:stockid="Arrow1Lend"
       orient="auto"
       refY="0"
       refX="0"
       id="Arrow1Lend"
       style="overflow:visible">
      <path
         id="path3769"
         d="M 0,0 5,-5 -12.5,0 5,5 0,0 z"
         style="fill-rule:evenodd;stroke:#000000;stroke-width:1pt"
         transform="matrix(-0.8,0,0,-0.8,-10,0)"
         inkscape:connector-curvature="0" />
    </marker>
    <marker
       inkscape:stockid="Arrow1Lstart"
       orient="auto"
       refY="0"
       refX="0"
       id="Arrow1Lstart"
       style="overflow:visible">
      <path
         id="path3766"
         d="M 0,0 5,-5 -12.5,0 5,5 0,0 z"
         style="fill-rule:evenodd;stroke:#000000;stroke-width:1pt"
         transform="matrix(0.8,0,0,0.8,10,0)"
         inkscape:connector-curvature="0" />
    </marker>
  </defs>
  <metadata
     id="metadata7">
    <rdf:RDF>
      <cc:Work
         rdf:about="">
        <dc:format>image/svg+xml</dc:format>
        <dc:type
           rdf:resource="http://purl.org/dc/dcmitype/StillImage" />
        <dc:title></dc:title>
      </cc:Work>
    </rdf:RDF>
  </metadata>
  <g
     inkscape:label="Layer 1"
     inkscape:groupmode="layer"
     id="layer1"
     transform="translate(1.53125,189.21875)">
    <path
       sodipodi:type="arc"
       style="fill:none;stroke:#000000;stroke-width:6.45461512;stroke-miterlimit:4;stroke-opacity:1;stroke-dasharray:none;stroke-dashoffset:0"
       id="path4835"
       sodipodi:cx="301.22748"
       sodipodi:cy="140.19444"
       sodipodi:rx="56.568542"
       sodipodi:ry="66.46804"
       d="m 357.79602,140.19444 c 0,36.70929 -25.3266,66.46804 -56.56854,66.46804 -31.24195,0 -56.56854,-29.75875 -56.56854,-66.46804 0,-36.70928 25.32659,-66.468038 56.56854,-66.468038 31.24194,0 56.56854,29.758758 56.56854,66.468038 z"
       transform="matrix(0.30721039,0,0,0.26145564,-38.86964,-140.24331)" />
    <path
       sodipodi:type="arc"
       style="fill:none;stroke:#000000;stroke-width:6.45461512;stroke-miterlimit:4;stroke-opacity:1;stroke-dasharray:none;stroke-dashoffset:0"
       id="path4835-7"
       sodipodi:cx="301.22748"
       sodipodi:cy="140.19444"
       sodipodi:rx="56.568542"
       sodipodi:ry="66.46804"
       d="m 357.79602,140.19444 c 0,36.70929 -25.3266,66.46804 -56.56854,66.46804 -31.24195,0 -56.56854,-29.75875 -56.56854,-66.46804 0,-36.70928 25.32659,-66.468038 56.56854,-66.468038 31.24194,0 56.56854,29.758758 56.56854,66.468038 z"
       transform="matrix(0.30721039,0,0,0.26145564,152.91389,-79.82592)" />
    <path
       sodipodi:type="arc"
       style="fill:none;stroke:#000000;stroke-width:6.45461512;stroke-miterlimit:4;stroke-opacity:1;stroke-dasharray:none;stroke-dashoffset:0"
       id="path4835-1"
       sodipodi:cx="301.22748"
       sodipodi:cy="140.19444"
       sodipodi:rx="56.568542"
       sodipodi:ry="66.46804"
       d="m 357.79602,140.19444 c 0,36.70929 -25.3266,66.46804 -56.56854,66.46804 -31.24195,0 -56.56854,-29.75875 -56.56854,-66.46804 0,-36.70928 25.32659,-66.468038 56.56854,-66.468038 31.24194,0 56.56854,29.758758 56.56854,66.468038 z"
       transform="matrix(0.30721039,0,0,0.26145564,117.51674,-140.24331)" />
    <path
       sodipodi:type="arc"
       style="fill:none;stroke:#000000;stroke-width:6.45461512;stroke-miterlimit:4;stroke-opacity:1;stroke-dasharray:none;stroke-dashoffset:0"
       id="path4835-5"
       sodipodi:cx="301.22748"
       sodipodi:cy="140.19444"
       sodipodi:rx="56.568542"
       sodipodi:ry="66.46804"
       d="m 357.79602,140.19444 c 0,36.70929 -25.3266,66.46804 -56.56854,66.46804 -31.24195,0 -56.56854,-29.75875 -56.56854,-66.46804 0,-36.70928 25.32659,-66.468038 56.56854,-66.468038 31.24194,0 56.56854,29.758758 56.56854,66.468038 z"
       transform="matrix(0.30721039,0,0,0.26145564,43.186606,-197.99935)" />
    <path
       sodipodi:type="arc"
       style="fill:none;stroke:#000000;stroke-width:6.45461512;stroke-miterlimit:4;stroke-opacity:1;stroke-dasharray:none;stroke-dashoffset:0"
       id="path4835-3"
       sodipodi:cx="301.22748"
       sodipodi:cy="140.19444"
       sodipodi:rx="56.568542"
       sodipodi:ry="66.46804"
       d="m 357.79602,140.19444 c 0,36.70929 -25.3266,66.46804 -56.56854,66.46804 -31.24195,0 -56.56854,-29.75875 -56.56854,-66.46804 0,-36.70928 25.32659,-66.468038 56.56854,-66.468038 31.24194,0 56.56854,29.758758 56.56854,66.468038 z"
       transform="matrix(0.30721039,0,0,0.26145564,-8.045768,-79.82592)" />
    <rect
       style="fill:none;stroke:none"
       id="rect4876"
       width="17.927237"
       height="17.927237"
       x="4.7365303"
       y="-52.134918" />
    <path
       style="fill:none;stroke:#000000;stroke-width:1.09800005;stroke-linecap:butt;stroke-linejoin:miter;stroke-miterlimit:4;stroke-opacity:1;stroke-dasharray:none"
       d="m 67.882917,-113.59217 53.631553,-37.74906"
       id="path4878"
       inkscape:connector-type="polyline"
       inkscape:connector-curvature="0"
       inkscape:connection-start="#path4835"
       inkscape:connection-start-point="d4"
       inkscape:connection-end="#path4835-5"
       inkscape:connection-end-point="d4" />
    <path
       style="fill:none;stroke:#000000;stroke-width:1.09800005;stroke-linecap:butt;stroke-linejoin:miter;stroke-miterlimit:4;stroke-opacity:1;stroke-dasharray:none"
       d="m 149.4502,-150.68137 46.88337,36.42934"
       id="path4880"
       inkscape:connector-type="polyline"
       inkscape:connector-curvature="0"
       inkscape:connection-start="#path4835-5"
       inkscape:connection-start-point="d4"
       inkscape:connection-end="#path4835-1"
       inkscape:connection-end-point="d4" />
    <path
       style="fill:none;stroke:#000000;stroke-width:1.09800005;stroke-linecap:butt;stroke-linejoin:miter;stroke-miterlimit:4;stroke-opacity:1;stroke-dasharray:none"
       d="m 179.91138,-52.134918 21.35923,-36.45685"
       id="path4920"
       inkscape:connector-type="polyline"
       inkscape:connector-curvature="0"
       inkscape:connection-end="#path4835-1"
       inkscape:connection-end-point="d4" />
    <path
       style="fill:none;stroke:#000000;stroke-width:1.09800005;stroke-linecap:butt;stroke-linejoin:miter;stroke-miterlimit:4;stroke-opacity:1;stroke-dasharray:none"
       d="M 215.0719,3.4761353 235.96849,-28.607521"
       id="path4950"
       inkscape:connector-type="polyline"
       inkscape:connector-curvature="0"
       inkscape:connection-end="#path4835-7"
       inkscape:connection-end-point="d4" />
    <path
       style="fill:none;stroke:#000000;stroke-width:1.09800005;stroke-linecap:butt;stroke-linejoin:miter;stroke-miterlimit:4;stroke-opacity:1;stroke-dasharray:none"
       d="M 275.6785,2.0126343 255.11745,-28.725079"
       id="path4952"
       inkscape:connector-type="polyline"
       inkscape:connector-curvature="0"
       inkscape:connection-end="#path4835-7"
       inkscape:connection-end-point="d4" />
    <path
       style="fill:none;stroke:#000000;stroke-width:1.09800005;stroke-linecap:butt;stroke-linejoin:miter;stroke-miterlimit:4;stroke-opacity:1;stroke-dasharray:none"
       d="M 236.66776,-58.168207 218.8433,-88.591768"
       id="path4954"
       inkscape:connector-type="polyline"
       inkscape:connector-curvature="0"
       inkscape:connection-start="#path4835-7"
       inkscape:connection-start-point="d4"
       inkscape:connection-end="#path4835-1"
       inkscape:connection-end-point="d4" />
    <path
       style="fill:none;stroke:#000000;stroke-width:1.09800005;stroke-linecap:butt;stroke-linejoin:miter;stroke-miterlimit:4;stroke-opacity:1;stroke-dasharray:none"
       d="m 19.630224,-52.134918 24.45066,-36.958451"
       id="path4962"
       inkscape:connector-type="polyline"
       inkscape:connector-curvature="0"
       inkscape:connection-start="#rect4876"
       inkscape:connection-start-point="d4"
       inkscape:connection-end="#path4835"
       inkscape:connection-end-point="d4" />
    <path
       style="fill:none;stroke:#000000;stroke-width:1.09800005;stroke-linecap:butt;stroke-linejoin:miter;stroke-miterlimit:4;stroke-opacity:1;stroke-dasharray:none"
       d="M 76.595049,-58.654772 61.569965,-88.105203"
       id="path4964"
       inkscape:connector-type="polyline"
       inkscape:connector-curvature="0"
       inkscape:connection-start="#path4835-3"
       inkscape:connection-start-point="d4"
       inkscape:connection-end="#path4835"
       inkscape:connection-end-point="d4" />
    <flowRoot
       xml:space="preserve"
       id="flowRoot4966"
       style="font-size:16px;font-style:normal;font-variant:normal;font-weight:normal;font-stretch:normal;line-height:125%;letter-spacing:0px;word-spacing:0px;fill:#000000;fill-opacity:1;stroke:none;font-family:Courier New;-inkscape-font-specification:Courier New"
       transform="matrix(2.5149637,0,0,2.5149637,-22.456203,-1559.3083)"><flowRegion
         id="flowRegion4968"><rect
           id="rect4970"
           width="176.77669"
           height="142.83557"
           x="25.455845"
           y="568.70117" /></flowRegion><flowPara
         id="flowPara4972">+</flowPara></flowRoot>    <flowRoot
       xml:space="preserve"
       id="flowRoot4966-01"
       style="font-size:16px;font-style:normal;font-variant:normal;font-weight:normal;font-stretch:normal;line-height:125%;letter-spacing:0px;word-spacing:0px;fill:#000000;fill-opacity:1;stroke:none;font-family:Courier New;-inkscape-font-specification:Courier New"
       transform="matrix(2.5149637,0,0,2.5149637,59.600042,-1617.0643)"><flowRegion
         id="flowRegion4968-6"><rect
           id="rect4970-4"
           width="176.77669"
           height="142.83557"
           x="25.455845"
           y="568.70117" /></flowRegion><flowPara
         id="flowPara4972-82">+</flowPara></flowRoot>    <path
       style="font-size:16px;font-style:normal;font-variant:normal;font-weight:normal;font-stretch:normal;line-height:125%;letter-spacing:0px;word-spacing:0px;fill:#000000;fill-opacity:1;stroke:none;font-family:Courier New;-inkscape-font-specification:Courier New"
       d="m 209.05333,-104.16368 c 0.0114,-2.39394 -0.023,-4.78941 0.0179,-7.18234 -0.0494,-0.87886 1.14663,-1.38203 1.72167,-0.70605 0.45863,0.65926 0.22993,1.51165 0.28584,2.26626 0,1.87404 0,3.74809 0,5.62213 2.30354,-0.73673 4.59182,-1.52606 6.90535,-2.22837 1.23382,-0.38417 1.7439,1.65623 0.5033,1.93787 -2.25838,0.75354 -4.52679,1.47848 -6.7891,2.22082 1.39365,1.93245 2.82512,3.83915 4.19437,5.78819 0.70115,0.80433 -0.43038,2.11626 -1.30476,1.45064 -0.68631,-0.61125 -1.13124,-1.44197 -1.69796,-2.16114 -0.94536,-1.30336 -1.89072,-2.60673 -2.83607,-3.91009 -1.38586,1.90373 -2.75865,3.81733 -4.15271,5.71485 -0.47285,0.89439 -1.97745,0.54457 -1.90044,-0.49549 0.15411,-0.73561 0.76001,-1.26363 1.15195,-1.88317 1.09359,-1.50126 2.18719,-3.00252 3.28077,-4.50379 -2.30574,-0.77022 -4.62854,-1.49406 -6.92316,-2.29457 -1.24396,-0.42063 -0.3385,-2.4161 0.82206,-1.81942 2.24419,0.71476 4.47978,1.45789 6.72059,2.18367"
       id="path4983-6"
       inkscape:connector-curvature="0" />
    <path
       style="font-size:16px;font-style:normal;font-variant:normal;font-weight:normal;font-stretch:normal;line-height:125%;letter-spacing:0px;word-spacing:0px;fill:#000000;fill-opacity:1;stroke:none;font-family:Courier New;-inkscape-font-specification:Courier New"
       d="m 244.45049,-43.74629 c 0.0113,-2.39394 -0.023,-4.78942 0.0179,-7.18235 -0.0494,-0.87886 1.14663,-1.38203 1.72168,-0.70604 0.45862,0.65925 0.22992,1.51164 0.28583,2.26626 0,1.87404 0,3.74808 0,5.62213 2.30353,-0.73673 4.59182,-1.52607 6.90535,-2.22838 1.23381,-0.38417 1.74389,1.65624 0.50329,1.93787 -2.25838,0.75354 -4.52679,1.47848 -6.78909,2.22083 1.39364,1.93243 2.82511,3.83915 4.19436,5.78819 0.70116,0.80432 -0.43038,2.11625 -1.30475,1.45063 -0.68632,-0.61124 -1.13124,-1.44196 -1.69796,-2.16114 -0.94536,-1.30336 -1.89073,-2.60672 -2.83608,-3.91008 -1.38585,1.90372 -2.75864,3.81732 -4.15271,5.71485 -0.47284,0.89439 -1.97745,0.54457 -1.90044,-0.4955 0.15411,-0.73561 0.76001,-1.26363 1.15195,-1.88317 1.0936,-1.50126 2.18719,-3.00252 3.28078,-4.50378 -2.30575,-0.77022 -4.62855,-1.49408 -6.92317,-2.29457 -1.24394,-0.42064 -0.33849,-2.41611 0.82206,-1.81943 2.2442,0.71476 4.47979,1.4579 6.72061,2.18368"
       id="path4983-3"
       inkscape:connector-curvature="0" />
    <path
       style="font-size:16px;font-style:normal;font-variant:normal;font-weight:normal;font-stretch:normal;line-height:125%;letter-spacing:0px;word-spacing:0px;fill:#000000;fill-opacity:1;stroke:none;font-family:Courier New;-inkscape-font-specification:Courier New"
       d="m 83.490822,-43.74629 c 0.01131,-2.39394 -0.02298,-4.78942 0.01789,-7.18235 -0.04939,-0.87886 1.14663,-1.38203 1.721677,-0.70604 0.458626,0.65925 0.229923,1.51164 0.285834,2.26626 0,1.87404 0,3.74808 0,5.62213 2.303536,-0.73673 4.591824,-1.52607 6.905348,-2.22838 1.233822,-0.38417 1.743896,1.65624 0.503295,1.93787 -2.258379,0.75354 -4.526785,1.47848 -6.789089,2.22083 1.393641,1.93243 2.825114,3.83915 4.194367,5.78819 0.701152,0.80432 -0.43039,2.11625 -1.30476,1.45063 -0.686317,-0.61124 -1.131238,-1.44196 -1.697961,-2.16114 -0.945359,-1.30336 -1.890716,-2.60672 -2.836075,-3.91008 -1.385855,1.90372 -2.758643,3.81732 -4.152712,5.71485 -0.472845,0.89439 -1.97744,0.54457 -1.900437,-0.4955 0.154111,-0.73561 0.760011,-1.26363 1.151953,-1.88317 1.09359,-1.50126 2.187184,-3.00252 3.280775,-4.50378 -2.30575,-0.77022 -4.628542,-1.49408 -6.923166,-2.29457 -1.243953,-0.42064 -0.338499,-2.41611 0.822059,-1.81943 2.244194,0.71476 4.479782,1.4579 6.720599,2.18368"
       id="path4983-8"
       inkscape:connector-curvature="0" />
    <flowRoot
       xml:space="preserve"
       id="flowRoot5086"
       style="font-size:16px;font-style:italic;font-variant:normal;font-weight:normal;font-stretch:normal;line-height:125%;letter-spacing:0px;word-spacing:0px;fill:#922e2e;fill-opacity:1;stroke:none;font-family:Times New Roman;-inkscape-font-specification:'Times New Roman, Italic'"
       transform="matrix(1.5309834,0,0,1.5309834,-80.457,-1087.4686)"><flowRegion
         id="flowRegion5088"><rect
           id="rect5090"
           width="140"
           height="126"
           x="186"
           y="706.36218"
           style="font-style:italic;font-variant:normal;font-weight:normal;font-stretch:normal;font-family:Times New Roman;-inkscape-font-specification:'Times New Roman, Italic';fill:#922e2e;fill-opacity:1" /></flowRegion><flowPara
         id="flowPara5092">x</flowPara></flowRoot>    <flowRoot
       xml:space="preserve"
       id="flowRoot5086-3"
       style="font-size:16px;font-style:italic;font-variant:normal;font-weight:normal;font-stretch:normal;line-height:125%;letter-spacing:0px;word-spacing:0px;fill:#922e2e;fill-opacity:1;stroke:none;font-family:Times New Roman;-inkscape-font-specification:'Times New Roman, Italic'"
       transform="matrix(1.5309834,0,0,1.5309834,-8.016326,-1088.932)"><flowRegion
         id="flowRegion5088-2"><rect
           id="rect5090-6"
           width="140"
           height="126"
           x="186"
           y="706.36218"
           style="font-style:italic;font-variant:normal;font-weight:normal;font-stretch:normal;font-family:Times New Roman;-inkscape-font-specification:'Times New Roman, Italic';fill:#922e2e;fill-opacity:1" /></flowRegion><flowPara
         id="flowPara5092-0">x</flowPara></flowRoot>    <rect
       style="fill:none;stroke:none"
       id="rect4876-6-2"
       width="17.927237"
       height="17.927237"
       x="39.31049"
       y="4.7592773" />
    <flowRoot
       xml:space="preserve"
       id="flowRoot5086-3-2"
       style="font-size:16px;font-style:italic;font-variant:normal;font-weight:normal;font-stretch:normal;line-height:125%;letter-spacing:0px;word-spacing:0px;fill:#922e2e;fill-opacity:1;stroke:none;font-family:Times New Roman;-inkscape-font-specification:'Times New Roman, Italic'"
       transform="matrix(1.5309834,0,0,1.5309834,-168.97599,-1087.6489)"><flowRegion
         id="flowRegion5088-2-8"><rect
           id="rect5090-6-8"
           width="140"
           height="126"
           x="186"
           y="706.36218"
           style="font-style:italic;font-variant:normal;font-weight:normal;font-stretch:normal;font-family:Times New Roman;-inkscape-font-specification:'Times New Roman, Italic';fill:#922e2e;fill-opacity:1" /></flowRegion><flowPara
         id="flowPara5092-0-3">x</flowPara></flowRoot>    <path
       style="fill:none;stroke:#000000;stroke-width:1.09800005;stroke-linecap:butt;stroke-linejoin:miter;stroke-miterlimit:4;stroke-opacity:1;stroke-dasharray:none"
       d="M 53.980583,4.7592773 75.16047,-28.509672"
       id="path5198"
       inkscape:connector-type="polyline"
       inkscape:connector-curvature="0"
       inkscape:connection-start="#rect4876-6-2"
       inkscape:connection-start-point="d4"
       inkscape:connection-end="#path4835-3"
       inkscape:connection-end-point="d4" />
    <path
       style="fill:none;stroke:#000000;stroke-width:1.09800005;stroke-linecap:butt;stroke-linejoin:miter;stroke-miterlimit:4;stroke-opacity:1;stroke-dasharray:none"
       d="M 114.85765,3.2958374 94.001672,-28.621653"
       id="path5200"
       inkscape:connector-type="polyline"
       inkscape:connector-curvature="0"
       inkscape:connection-end="#path4835-3"
       inkscape:connection-end-point="d4" />
    <flowRoot
       xml:space="preserve"
       id="flowRoot5086-2-6"
       style="font-size:16px;font-style:normal;font-variant:normal;font-weight:normal;font-stretch:normal;line-height:125%;letter-spacing:0px;word-spacing:0px;fill:#2e9237;fill-opacity:1;stroke:none;font-family:Times New Roman;-inkscape-font-specification:'Times New Roman,'"
       transform="matrix(1.0320807,0,0,1.0320807,-21.084775,-782.72053)"><flowRegion
         id="flowRegion5088-29-2"><rect
           id="rect5090-69-8"
           width="140"
           height="126"
           x="186"
           y="706.36218"
           style="font-style:normal;font-variant:normal;font-weight:normal;font-stretch:normal;font-family:Times New Roman;-inkscape-font-specification:'Times New Roman,';fill:#2e9237;fill-opacity:1" /></flowRegion><flowPara
         id="flowPara5092-1-3">3</flowPara></flowRoot>    <flowRoot
       xml:space="preserve"
       id="flowRoot5086-2-6-1"
       style="font-size:16px;font-style:normal;font-variant:normal;font-weight:normal;font-stretch:normal;line-height:125%;letter-spacing:0px;word-spacing:0px;fill:#2e9237;fill-opacity:1;stroke:none;font-family:Times New Roman;-inkscape-font-specification:'Times New Roman,'"
       transform="matrix(1.0320807,0,0,1.0320807,-182.35487,-782.62376)"><flowRegion
         id="flowRegion5088-29-2-8"><rect
           id="rect5090-69-8-6"
           width="140"
           height="126"
           x="186"
           y="706.36218"
           style="font-style:normal;font-variant:normal;font-weight:normal;font-stretch:normal;font-family:Times New Roman;-inkscape-font-specification:'Times New Roman,';fill:#2e9237;fill-opacity:1" /></flowRegion><flowPara
         id="flowPara5092-1-3-7">1</flowPara></flowRoot>    <flowRoot
       xml:space="preserve"
       id="flowRoot5086-2-6-1-6"
       style="font-size:16px;font-style:normal;font-variant:normal;font-weight:normal;font-stretch:normal;line-height:125%;letter-spacing:0px;word-spacing:0px;fill:#2e9237;fill-opacity:1;stroke:none;font-family:Times New Roman;-inkscape-font-specification:'Times New Roman,'"
       transform="matrix(1.0320807,0,0,1.0320807,-147.65594,-725.72959)"><flowRegion
         id="flowRegion5088-29-2-8-1"><rect
           id="rect5090-69-8-6-1"
           width="140"
           height="126"
           x="186"
           y="706.36218"
           style="font-style:normal;font-variant:normal;font-weight:normal;font-stretch:normal;font-family:Times New Roman;-inkscape-font-specification:'Times New Roman,';fill:#2e9237;fill-opacity:1" /></flowRegion><flowPara
         id="flowPara5092-1-3-7-4">2</flowPara></flowRoot>  </g>
</svg>
